<svg xmlns="http://www.w3.org/2000/svg" xmlns:xlink="http://www.w3.org/1999/xlink" version="1.1" x="0px" y="0px" viewBox="0 0 64 80" style="enable-background:new 0 0 64 64;" xml:space="preserve"><g><path d="M24.485,7.468c1.273,1.018,2.104,2.438,2.393,4.006l-3.507-1.403l-0.743,1.857L28,14.077l5.372-2.148l-0.743-1.857   l-3.711,1.484c-0.291-2.214-1.411-4.23-3.184-5.649C24.197,4.677,22.267,4,20.299,4H20v2h0.299C21.814,6,23.301,6.521,24.485,7.468   z"/><path d="M39.515,56.532c-1.273-1.018-2.104-2.438-2.393-4.006l3.507,1.403l0.743-1.857L36,49.923l-5.372,2.148l0.743,1.857   l3.711-1.484c0.291,2.214,1.411,4.23,3.184,5.649C39.803,59.323,41.733,60,43.701,60H44v-2h-0.299   C42.186,58,40.699,57.479,39.515,56.532z"/><path d="M54,45c-1.438,0-2.793,0.348-4,0.95V28.193l2.071,5.179l1.857-0.743l-1.484-3.711c2.214-0.291,4.23-1.411,5.649-3.184   C59.323,24.197,60,22.267,60,20.299V20h-2v0.299c0,1.516-0.521,3.002-1.468,4.186c-1.018,1.273-2.438,2.104-4.006,2.393   l1.403-3.507l-1.857-0.743L50,27.807V18.05c1.207,0.602,2.562,0.95,4,0.95c4.962,0,9-4.038,9-9s-4.038-9-9-9s-9,4.038-9,9   c0,3.483,1.993,6.505,4.896,8H14.104C17.007,16.505,19,13.483,19,10c0-4.962-4.038-9-9-9s-9,4.038-9,9s4.038,9,9,9   c1.438,0,2.793-0.348,4-0.95v17.757l-2.071-5.179l-1.857,0.743l1.484,3.711c-2.214,0.291-4.23,1.411-5.649,3.184   C4.677,39.803,4,41.733,4,43.701V44h2v-0.299c0-1.516,0.521-3.002,1.468-4.186c1.018-1.273,2.438-2.104,4.006-2.393l-1.403,3.507   l1.857,0.743L14,36.193v9.757C12.793,45.348,11.438,45,10,45c-4.962,0-9,4.038-9,9s4.038,9,9,9s9-4.038,9-9   c0-3.483-1.993-6.505-4.896-8h35.792C46.993,47.495,45,50.517,45,54c0,4.962,4.038,9,9,9s9-4.038,9-9S58.962,45,54,45z M51,16.315   V15c0-1.654,1.346-3,3-3s3,1.346,3,3v1.315C56.089,16.75,55.075,17,54,17S51.911,16.75,51,16.315z M52,8c0-1.103,0.897-2,2-2   s2,0.897,2,2s-0.897,2-2,2S52,9.103,52,8z M47,10c0-3.86,3.14-7,7-7s7,3.14,7,7c0,1.907-0.769,3.637-2.01,4.901   c-0.034-1.681-0.893-3.164-2.197-4.046C57.536,10.128,58,9.119,58,8c0-2.206-1.794-4-4-4s-4,1.794-4,4   c0,1.119,0.464,2.128,1.207,2.855c-1.304,0.882-2.163,2.365-2.197,4.046C47.769,13.637,47,11.907,47,10z M3,10c0-3.86,3.14-7,7-7   s7,3.14,7,7c0,1.907-0.769,3.637-2.01,4.901c-0.034-1.681-0.893-3.164-2.197-4.046C13.536,10.128,14,9.119,14,8   c0-2.206-1.794-4-4-4S6,5.794,6,8c0,1.119,0.464,2.128,1.207,2.855c-1.304,0.882-2.163,2.365-2.197,4.046   C3.769,13.637,3,11.907,3,10z M8,8c0-1.103,0.897-2,2-2s2,0.897,2,2s-0.897,2-2,2S8,9.103,8,8z M7,16.315V15c0-1.654,1.346-3,3-3   s3,1.346,3,3v1.315C12.089,16.75,11.075,17,10,17S7.911,16.75,7,16.315z M7,60.315V59c0-1.654,1.346-3,3-3s3,1.346,3,3v1.315   C12.089,60.75,11.075,61,10,61S7.911,60.75,7,60.315z M8,52c0-1.103,0.897-2,2-2s2,0.897,2,2s-0.897,2-2,2S8,53.103,8,52z M17,54   c0,1.907-0.769,3.637-2.01,4.901c-0.034-1.681-0.893-3.164-2.197-4.046C13.536,54.128,14,53.119,14,52c0-2.206-1.794-4-4-4   s-4,1.794-4,4c0,1.119,0.464,2.128,1.207,2.855c-1.304,0.882-2.163,2.365-2.197,4.046C3.769,57.637,3,55.907,3,54   c0-3.86,3.14-7,7-7S17,50.14,17,54z M48,20v6H16v-6H48z M16,44V28h32v16H16z M51,60.315V59c0-1.654,1.346-3,3-3s3,1.346,3,3v1.315   C56.089,60.75,55.075,61,54,61S51.911,60.75,51,60.315z M52,52c0-1.103,0.897-2,2-2s2,0.897,2,2s-0.897,2-2,2S52,53.103,52,52z    M58.99,58.901c-0.034-1.681-0.893-3.164-2.197-4.046C57.536,54.128,58,53.119,58,52c0-2.206-1.794-4-4-4s-4,1.794-4,4   c0,1.119,0.464,2.128,1.207,2.855c-1.304,0.882-2.163,2.365-2.197,4.046C47.769,57.637,47,55.907,47,54c0-3.86,3.14-7,7-7   s7,3.14,7,7C61,55.907,60.231,57.637,58.99,58.901z"/><rect x="18" y="22" width="2" height="2"/><rect x="22" y="22" width="2" height="2"/><rect x="26" y="22" width="2" height="2"/><path d="M18,42h16V30H18V42z M20,32h12v8H20V32z"/><rect x="36" y="30" width="10" height="2"/><rect x="36" y="34" width="10" height="2"/><rect x="36" y="38" width="10" height="2"/></g><text x="0" y="79" fill="#000000" font-size="5px" font-weight="bold" font-family="'Helvetica Neue', Helvetica, Arial-Unicode, Arial, Sans-serif">Created by Eucalyp</text><text x="0" y="84" fill="#000000" font-size="5px" font-weight="bold" font-family="'Helvetica Neue', Helvetica, Arial-Unicode, Arial, Sans-serif">from the Noun Project</text></svg>