<svg xmlns="http://www.w3.org/2000/svg" viewBox="0 0 66 62.5" x="0px" y="0px"><path fill="#000000" fill-rule="evenodd" d="M464.428231,336 L458.546422,339.83751 C457.881263,340.271484 457,339.794211 457,339 L457,322.996203 C457,320.236571 459.232312,318 461.990053,318 L478.009947,318 C480.766323,318 483,320.236991 483,322.996203 L483,331.003797 C483,333.761834 480.758402,336 478.000942,336 L464.428231,336 Z M463.584437,334.16249 C463.746954,334.056458 463.936811,334 464.130859,334 L478.000942,334 C479.654517,334 481,332.656577 481,331.003797 L481,322.996203 C481,321.340898 479.661089,320 478.009947,320 L461.990053,320 C460.337735,320 459,321.340288 459,322.996203 L459,337.153547 L463.584437,334.16249 Z M474,328.5 C473.171573,328.5 472.5,327.828427 472.5,327 C472.5,326.171573 473.171573,325.5 474,325.5 C474.828427,325.5 475.5,326.171573 475.5,327 C475.5,327.828427 474.828427,328.5 474,328.5 Z M466,328.5 C465.171573,328.5 464.5,327.828427 464.5,327 C464.5,326.171573 465.171573,325.5 466,325.5 C466.828427,325.5 467.5,326.171573 467.5,327 C467.5,327.828427 466.828427,328.5 466,328.5 Z M445,355 L445,347 L418,347 C417.447715,347 417,346.552285 417,346 L417,308 C417,307.447715 417.447715,307 418,307 L473,307 C473.552285,307 474,307.447715 474,308 L474,314 C474,314.552285 473.552285,315 473,315 C472.447715,315 472,314.552285 472,314 L472,309 L419,309 L419,345 L472,345 L472,340 C472,339.447715 472.447715,339 473,339 C473.552285,339 474,339.447715 474,340 L474,346 C474,346.552285 473.552285,347 473,347 L447,347 L447,355 L455,355 C455.552285,355 456,355.447715 456,356 C456,356.552285 455.552285,357 455,357 L437,357 C436.447715,357 436,356.552285 436,356 C436,355.447715 436.447715,355 437,355 L445,355 Z" transform="translate(-417 -307)"/><text x="0" y="65" fill="#000000" font-size="5px" font-weight="bold" font-family="'Helvetica Neue', Helvetica, Arial-Unicode, Arial, Sans-serif">Created by Andrejs Kirma</text><text x="0" y="70" fill="#000000" font-size="5px" font-weight="bold" font-family="'Helvetica Neue', Helvetica, Arial-Unicode, Arial, Sans-serif">from the Noun Project</text></svg>