<svg xmlns="http://www.w3.org/2000/svg" xmlns:xlink="http://www.w3.org/1999/xlink" version="1.1" x="0px" y="0px" viewBox="0 0 65 81.25" enable-background="new 0 0 65 65" xml:space="preserve"><g><g><path d="M37.139,21.832l-2.266-0.285c-0.29-1.089-0.705-2.121-1.26-3.033l1.4-1.815c0.275-0.358,0.228-0.856-0.072-1.156    l-2.08-2.095c-0.321-0.311-0.819-0.347-1.167-0.067l-1.815,1.4c-0.928-0.555-1.955-0.985-3.034-1.25l-0.29-2.277    c-0.057-0.441-0.425-0.767-0.866-0.767h-2.951c-0.451,0-0.819,0.327-0.866,0.767l-0.301,2.277    c-1.073,0.265-2.105,0.695-3.028,1.25l-1.815-1.41c-0.347-0.27-0.845-0.233-1.146,0.067l-2.105,2.105    c-0.311,0.301-0.337,0.799-0.067,1.146l1.395,1.815c-0.539,0.923-0.98,1.955-1.245,3.044l-2.282,0.275    c-0.441,0.057-0.762,0.431-0.762,0.866v2.961c0,0.441,0.321,0.809,0.762,0.871l2.266,0.301c0.28,1.073,0.705,2.09,1.26,3.018    l-1.395,1.825c-0.27,0.347-0.244,0.835,0.067,1.156l2.105,2.085c0.301,0.321,0.799,0.347,1.146,0.067l1.815-1.4    c0.923,0.565,1.945,0.996,3.028,1.26l0.29,2.266c0.057,0.441,0.425,0.778,0.866,0.778h2.961c0.441,0,0.809-0.337,0.866-0.778    l0.28-2.266c1.089-0.264,2.116-0.695,3.044-1.26l1.805,1.4c0.358,0.28,0.856,0.254,1.156-0.067l2.09-2.085    c0.311-0.321,0.358-0.809,0.073-1.156l-1.4-1.815c0.565-0.939,0.98-1.945,1.27-3.028l2.266-0.301    c0.441-0.062,0.762-0.43,0.762-0.871v-2.946C37.901,22.252,37.579,21.879,37.139,21.832z M24.205,31.073    c-3.806,0-6.892-3.085-6.892-6.892s3.086-6.897,6.892-6.897c3.811,0,6.897,3.091,6.897,6.897S28.017,31.073,24.205,31.073z"/></g><g><path d="M17.326,54.766l-1.375-0.173c-0.176-0.661-0.428-1.287-0.765-1.84l0.85-1.101c0.167-0.217,0.138-0.519-0.044-0.702    l-1.262-1.271c-0.195-0.189-0.497-0.211-0.708-0.041l-1.101,0.849c-0.563-0.337-1.186-0.598-1.84-0.758l-0.176-1.381    c-0.035-0.267-0.258-0.465-0.525-0.465h-1.79c-0.274,0-0.497,0.198-0.525,0.465l-0.183,1.381c-0.651,0.16-1.277,0.422-1.837,0.758    l-1.101-0.856c-0.211-0.164-0.513-0.142-0.695,0.041L2.97,50.95c-0.189,0.182-0.205,0.484-0.041,0.695l0.846,1.101    c-0.327,0.56-0.595,1.186-0.755,1.847L1.636,54.76c-0.267,0.035-0.462,0.261-0.462,0.525v1.797c0,0.267,0.195,0.491,0.462,0.528    l1.375,0.183c0.17,0.651,0.428,1.268,0.764,1.831l-0.846,1.107c-0.164,0.211-0.148,0.507,0.041,0.702l1.277,1.265    c0.183,0.195,0.484,0.211,0.695,0.041l1.101-0.849c0.56,0.343,1.18,0.604,1.837,0.764l0.176,1.375    C8.092,64.295,8.316,64.5,8.583,64.5h1.796c0.267,0,0.491-0.204,0.525-0.472l0.17-1.375c0.661-0.16,1.284-0.421,1.847-0.764    l1.095,0.849c0.217,0.17,0.519,0.154,0.702-0.041l1.268-1.265c0.189-0.195,0.217-0.491,0.044-0.702L15.18,59.63    c0.343-0.569,0.595-1.18,0.771-1.837l1.375-0.183c0.267-0.038,0.462-0.261,0.462-0.528v-1.787    C17.789,55.021,17.593,54.794,17.326,54.766z M9.48,60.372c-2.309,0-4.181-1.872-4.181-4.181c0-2.309,1.872-4.184,4.181-4.184    c2.312,0,4.184,1.875,4.184,4.184C13.664,58.5,11.792,60.372,9.48,60.372z"/></g><g><path d="M64.011,8.16l-1.375-0.173c-0.176-0.661-0.428-1.287-0.764-1.841l0.849-1.101c0.167-0.217,0.139-0.519-0.044-0.701    l-1.262-1.271c-0.195-0.189-0.497-0.211-0.708-0.041l-1.101,0.849c-0.563-0.337-1.186-0.598-1.84-0.758l-0.176-1.381    c-0.035-0.267-0.258-0.466-0.525-0.466h-1.79c-0.274,0-0.497,0.198-0.525,0.466l-0.183,1.381    c-0.651,0.161-1.277,0.422-1.837,0.758l-1.101-0.856c-0.211-0.164-0.513-0.142-0.695,0.041l-1.277,1.277    c-0.189,0.182-0.204,0.484-0.041,0.695L50.46,6.14c-0.327,0.56-0.595,1.186-0.755,1.847l-1.384,0.167    c-0.267,0.035-0.463,0.261-0.463,0.525v1.797c0,0.267,0.195,0.491,0.463,0.529l1.375,0.182c0.17,0.651,0.428,1.268,0.764,1.831    l-0.846,1.108c-0.164,0.211-0.148,0.507,0.041,0.702l1.277,1.265c0.182,0.195,0.484,0.211,0.695,0.041l1.101-0.849    c0.56,0.343,1.18,0.604,1.837,0.764l0.176,1.375c0.035,0.267,0.258,0.472,0.525,0.472h1.796c0.267,0,0.491-0.204,0.525-0.472    l0.17-1.375c0.661-0.16,1.284-0.422,1.847-0.764l1.095,0.849c0.217,0.17,0.519,0.154,0.701-0.041l1.268-1.265    c0.189-0.195,0.217-0.491,0.044-0.702l-0.849-1.101c0.343-0.569,0.595-1.18,0.771-1.837l1.375-0.182    c0.267-0.038,0.462-0.261,0.462-0.529V8.689C64.473,8.415,64.278,8.188,64.011,8.16z M56.164,13.767    c-2.309,0-4.181-1.872-4.181-4.181c0-2.309,1.872-4.184,4.181-4.184c2.312,0,4.184,1.875,4.184,4.184    C60.348,11.895,58.476,13.767,56.164,13.767z"/></g><g><path d="M48.692,41.681c-0.29-0.29-0.771-0.29-1.061,0l-1.723,1.723l-0.961-0.961c0.326-0.88,0.142-1.906-0.565-2.613    l-1.324-1.324c7.072-9.281,6.378-22.589-2.106-31.072c-9.246-9.246-24.244-9.246-33.49,0c-9.246,9.246-9.246,24.244,0,33.49    c8.49,8.49,21.811,9.178,31.093,2.089l1.322,1.322c0.674,0.674,1.636,0.867,2.486,0.602l1.006,1.006l-1.718,1.718    c-0.295,0.295-0.295,0.777-0.005,1.066l14.907,14.865c0.929,0.929,2.433,0.929,3.362,0l3.686-3.686    c0.929-0.929,0.929-2.433,0-3.362L48.692,41.681z M37.598,37.571c-7.393,7.393-19.384,7.388-26.777-0.005    c-7.393-7.393-7.393-19.379,0-26.772c7.393-7.393,19.379-7.393,26.772,0S44.991,30.178,37.598,37.571z"/></g></g><text x="0" y="80" fill="#000000" font-size="5px" font-weight="bold" font-family="'Helvetica Neue', Helvetica, Arial-Unicode, Arial, Sans-serif">Created by Vectors Market</text><text x="0" y="85" fill="#000000" font-size="5px" font-weight="bold" font-family="'Helvetica Neue', Helvetica, Arial-Unicode, Arial, Sans-serif">from the Noun Project</text></svg>